<?xml version="1.0" encoding="UTF-8" standalone="no"?>
<!DOCTYPE svg PUBLIC "-//W3C//DTD SVG 1.1//EN" "http://www.w3.org/Graphics/SVG/1.1/DTD/svg11.dtd">
<svg width="100%" height="100%" viewBox="0 0 50 50" version="1.1" xmlns="http://www.w3.org/2000/svg" xmlns:xlink="http://www.w3.org/1999/xlink" xml:space="preserve" xmlns:serif="http://www.serif.com/" style="fill-rule:evenodd;clip-rule:evenodd;stroke-linejoin:round;stroke-miterlimit:2;">
    <g transform="matrix(54.8469,0,0,54.8469,10.644,42.6209)">
        <path d="M0.18,0.087C0.14,0.087 0.105,0.079 0.076,0.062C0.047,0.045 0.024,0.023 0.009,-0.005C-0.007,-0.032 -0.015,-0.062 -0.015,-0.095C-0.015,-0.126 -0.008,-0.156 0.005,-0.185C0.018,-0.214 0.037,-0.241 0.061,-0.266C0.084,-0.29 0.112,-0.31 0.143,-0.326C0.174,-0.341 0.208,-0.351 0.244,-0.354C0.218,-0.375 0.199,-0.4 0.187,-0.428C0.174,-0.456 0.168,-0.484 0.168,-0.512C0.168,-0.547 0.177,-0.581 0.195,-0.613C0.212,-0.644 0.237,-0.67 0.268,-0.69C0.299,-0.709 0.335,-0.719 0.374,-0.719C0.411,-0.719 0.44,-0.71 0.459,-0.691C0.478,-0.672 0.488,-0.646 0.488,-0.611C0.488,-0.586 0.484,-0.562 0.475,-0.539C0.466,-0.516 0.456,-0.497 0.444,-0.482C0.431,-0.467 0.419,-0.46 0.408,-0.46C0.401,-0.46 0.394,-0.463 0.387,-0.47C0.38,-0.476 0.375,-0.483 0.371,-0.492C0.394,-0.513 0.414,-0.535 0.431,-0.558C0.447,-0.58 0.455,-0.605 0.455,-0.631C0.455,-0.652 0.449,-0.668 0.437,-0.679C0.425,-0.69 0.407,-0.696 0.384,-0.696C0.353,-0.696 0.327,-0.687 0.306,-0.669C0.285,-0.65 0.269,-0.626 0.258,-0.596C0.247,-0.565 0.241,-0.532 0.241,-0.495C0.241,-0.471 0.245,-0.445 0.252,-0.417C0.259,-0.389 0.275,-0.365 0.299,-0.344C0.254,-0.337 0.216,-0.32 0.183,-0.293C0.15,-0.266 0.124,-0.235 0.106,-0.199C0.087,-0.163 0.078,-0.127 0.078,-0.092C0.078,-0.07 0.082,-0.048 0.091,-0.026C0.099,-0.003 0.112,0.016 0.131,0.031C0.15,0.046 0.175,0.053 0.206,0.053C0.241,0.053 0.277,0.043 0.312,0.023C0.346,0.003 0.379,-0.023 0.408,-0.056C0.437,-0.089 0.461,-0.124 0.478,-0.162L0.492,-0.152C0.469,-0.107 0.441,-0.066 0.41,-0.03C0.379,0.006 0.344,0.035 0.305,0.056C0.266,0.077 0.225,0.087 0.18,0.087Z" style="fill:rgb(127,127,127);fill-rule:nonzero;"/>
    </g>
</svg>
